<?xml version="1.0" standalone="no"?>
<!DOCTYPE svg PUBLIC "-//W3C//DTD SVG 20010904//EN"
 "http://www.w3.org/TR/2001/REC-SVG-20010904/DTD/svg10.dtd">
<svg version="1.0" xmlns="http://www.w3.org/2000/svg"
 width="225.000000pt" height="225.000000pt" viewBox="0 0 225.000000 225.000000"
 preserveAspectRatio="xMidYMid meet">
<metadata>
Created by potrace 1.11, written by Peter Selinger 2001-2013
</metadata>
<g transform="translate(0.000000,225.000000) scale(0.100000,-0.100000)"
fill="#000000" stroke="none">
<path d="M975 2239 c-169 -21 -382 -107 -516 -208 -144 -109 -261 -249 -339
-406 -276 -557 -50 -1230 505 -1505 557 -276 1230 -50 1505 505 157 317 157
683 0 1000 -214 430 -672 674 -1155 614z m388 -49 c205 -45 377 -141 532 -295
216 -216 318 -464 318 -770 0 -306 -102 -554 -318 -770 -216 -216 -464 -318
-770 -318 -306 0 -554 102 -770 318 -155 156 -248 324 -297 537 -30 130 -30
336 0 466 47 205 141 378 287 528 175 179 392 288 647 324 89 13 268 3 371
-20z"/>
<path d="M936 2104 c-95 -18 -158 -40 -251 -87 -109 -54 -157 -88 -249 -176
-216 -209 -317 -461 -303 -763 6 -149 31 -249 92 -376 58 -120 92 -170 184
-266 94 -97 170 -152 292 -210 128 -62 227 -87 377 -93 302 -14 554 87 763
303 92 96 126 146 184 266 74 153 89 224 89 423 0 199 -15 270 -89 423 -58
120 -92 170 -184 266 -152 157 -325 251 -533 291 -97 18 -278 18 -372 -1z
m111 -536 c-1 -90 -3 -19 -3 157 0 176 2 249 3 163 2 -86 2 -230 0 -320z m160
0 c-1 -90 -3 -19 -3 157 0 176 2 249 3 163 2 -86 2 -230 0 -320z m-200 456
c-3 -3 -12 -4 -19 -1 -8 3 -5 6 6 6 11 1 17 -2 13 -5z m260 0 c-3 -3 -12 -4
-19 -1 -8 3 -5 6 6 6 11 1 17 -2 13 -5z m-320 -10 c-3 -3 -12 -4 -19 -1 -8 3
-5 6 6 6 11 1 17 -2 13 -5z m370 0 c-3 -3 -12 -4 -19 -1 -8 3 -5 6 6 6 11 1
17 -2 13 -5z m-410 -10 c-3 -3 -12 -4 -19 -1 -8 3 -5 6 6 6 11 1 17 -2 13 -5z
m460 0 c-3 -3 -12 -4 -19 -1 -8 3 -5 6 6 6 11 1 17 -2 13 -5z m-567 -34 c-8
-5 -19 -10 -25 -10 -5 0 -3 5 5 10 8 5 20 10 25 10 6 0 3 -5 -5 -10z m860
-845 c0 -406 -2 -740 -5 -743 -3 -3 -5 331 -5 743 0 412 2 746 5 743 3 -3 5
-337 5 -743z m-1060 -11 c0 -410 -3 -743 -7 -741 -9 5 -6 1487 2 1487 3 0 5
-336 5 -746z m-20 733 c0 -2 -10 -12 -22 -23 l-23 -19 19 23 c18 21 26 27 26
19z m1125 -17 c10 -11 16 -20 13 -20 -3 0 -13 9 -23 20 -10 11 -16 20 -13 20
3 0 13 -9 23 -20z m-1185 -33 c0 -2 -17 -19 -37 -38 l-38 -34 34 38 c33 34 41
42 41 34z m1256 -29 l29 -33 -32 29 c-31 28 -38 36 -30 36 2 0 16 -15 33 -32z
m59 -68 c10 -11 16 -20 13 -20 -3 0 -13 9 -23 20 -10 11 -16 20 -13 20 3 0 13
-9 23 -20z m-1395 7 c0 -2 -10 -12 -22 -23 l-23 -19 19 23 c18 21 26 27 26 19z
m1440 -68 c15 -28 5 -23 -15 7 -9 15 -12 23 -6 20 6 -4 16 -16 21 -27z m-1480
17 c0 -2 -8 -10 -17 -17 -16 -13 -17 -12 -4 4 13 16 21 21 21 13z m-40 -56
c-6 -11 -13 -20 -16 -20 -2 0 0 9 6 20 6 11 13 20 16 20 2 0 0 -9 -6 -20z
m1588 -85 c-3 -3 -9 2 -12 12 -6 14 -5 15 5 6 7 -7 10 -15 7 -18z m-1635 0
c-3 -9 -8 -14 -10 -11 -3 3 -2 9 2 15 9 16 15 13 8 -4z m924 -172 c-3 -10 -5
-2 -5 17 0 19 2 27 5 18 2 -10 2 -26 0 -35z m-37 18 c0 -6 -34 -10 -75 -10
-41 0 -75 4 -75 10 0 5 34 9 75 9 41 0 75 -4 75 -9z m-17 -42 c138 -38 190
-216 95 -325 -76 -87 -199 -96 -284 -22 -90 79 -96 203 -16 290 56 59 126 79
205 57z m-286 -141 c-3 -8 -6 -5 -6 6 -1 11 2 17 5 13 3 -3 4 -12 1 -19z m472
-53 c0 -22 -3 -48 -7 -57 -4 -10 -7 16 -7 57 0 41 3 67 7 57 4 -9 7 -35 7 -57z
m-482 -17 c-2 -13 -4 -5 -4 17 -1 22 1 32 4 23 2 -10 2 -28 0 -40z m10 -50
c-3 -8 -6 -5 -6 6 -1 11 2 17 5 13 3 -3 4 -12 1 -19z m151 -509 l-3 -344 -5
352 c-3 194 -2 349 3 344 4 -4 6 -162 5 -352z m162 9 l-5 -353 -3 340 c-2 302
0 365 10 365 2 0 1 -159 -2 -352z m-896 156 c3 -8 2 -12 -4 -9 -6 3 -10 10
-10 16 0 14 7 11 14 -7z m1626 -4 c-6 -11 -13 -20 -16 -20 -2 0 0 9 6 20 6 11
13 20 16 20 2 0 0 -9 -6 -20z m-40 -70 c-6 -11 -13 -20 -16 -20 -2 0 0 9 6 20
6 11 13 20 16 20 2 0 0 -9 -6 -20z m-20 -34 c0 -2 -8 -10 -17 -17 -16 -13 -17
-12 -4 4 13 16 21 21 21 13z m-30 -39 c0 -2 -10 -12 -22 -23 l-23 -19 19 23
c18 21 26 27 26 19z m-1415 -37 c10 -11 16 -20 13 -20 -3 0 -13 9 -23 20 -10
11 -16 20 -13 20 3 0 13 -9 23 -20z m1375 -13 c0 -2 -19 -21 -42 -42 l-43 -40
40 43 c36 39 45 47 45 39z m-1325 -47 c10 -11 16 -20 13 -20 -3 0 -13 9 -23
20 -10 11 -16 20 -13 20 3 0 13 -9 23 -20z m65 -55 c13 -14 21 -25 18 -25 -2
0 -15 11 -28 25 -13 14 -21 25 -18 25 2 0 15 -11 28 -25z m1160 11 c0 -2 -8
-10 -17 -17 -16 -13 -17 -12 -4 4 13 16 21 21 21 13z m-910 -146 c8 -5 11 -10
5 -10 -5 0 -17 5 -25 10 -8 5 -10 10 -5 10 6 0 17 -5 25 -10z m107 -36 c-3 -3
-12 -4 -19 -1 -8 3 -5 6 6 6 11 1 17 -2 13 -5z m460 0 c-3 -3 -12 -4 -19 -1
-8 3 -5 6 6 6 11 1 17 -2 13 -5z m-410 -10 c-3 -3 -12 -4 -19 -1 -8 3 -5 6 6
6 11 1 17 -2 13 -5z m370 0 c-3 -3 -12 -4 -19 -1 -8 3 -5 6 6 6 11 1 17 -2 13
-5z m-314 -11 c-7 -2 -19 -2 -25 0 -7 3 -2 5 12 5 14 0 19 -2 13 -5z m254 1
c-3 -3 -12 -4 -19 -1 -8 3 -5 6 6 6 11 1 17 -2 13 -5z"/>
<path d="M1050 1268 c-50 -26 -90 -89 -90 -143 0 -54 40 -117 90 -142 24 -13
58 -23 75 -23 17 0 51 10 75 23 50 25 90 88 90 142 0 17 -10 51 -22 75 -26 50
-89 90 -143 90 -17 0 -51 -10 -75 -22z m136 -23 c17 -13 11 -14 -61 -14 -72 0
-78 1 -61 14 11 8 38 15 61 15 23 0 50 -7 61 -15z m-136 -135 c0 -49 -2 -90
-3 -90 -2 0 -12 10 -23 22 -17 21 -17 21 -1 8 18 -13 18 -10 15 68 -2 45 0 82
5 82 4 0 7 -40 7 -90z m162 8 c-3 -74 -2 -81 12 -69 23 19 20 7 -4 -14 -20
-18 -20 -17 -20 73 0 51 3 92 8 92 4 0 6 -37 4 -82z m-215 -5 c-3 -10 -5 -4
-5 12 0 17 2 24 5 18 2 -7 2 -21 0 -30z m260 0 c-3 -10 -5 -4 -5 12 0 17 2 24
5 18 2 -7 2 -21 0 -30z"/>
</g>
</svg>
